<svg width="1262" height="327" viewBox="0 0 1262 327" fill="none" xmlns="http://www.w3.org/2000/svg">
<path d="M36.4038 92.3006C79.6933 36.6006 154.533 19.9006 181.89 14.7006C185.768 13.9006 189.018 17.5006 187.445 21.0006C184.406 27.7006 180.423 35.5006 177.383 45.0006C167.53 76.3006 164.7 106.001 157.258 132.501C149.292 161.001 120.258 181.501 97.6171 194.101C92.9003 196.801 94.787 204.001 100.237 204.001H119.733C124.345 204.001 126.651 209.201 123.507 212.401L26.4461 310.801C22.2534 315.101 15.021 310.101 18.0607 304.901L58.4154 235.601C60.4069 232.301 57.7865 228.201 53.8034 228.201H30.9533C27.3895 228.201 24.8739 224.801 26.2365 221.601C29.9051 212.701 37.6616 195.301 50.1348 172.601C66.3815 143.101 92.1666 113.101 112.501 91.2006C116.484 86.9006 112.816 83.0006 108.308 86.7006C94.8918 97.7006 78.4355 113.001 61.1406 132.401C36.1941 160.301 26.5509 184.801 23.3016 198.901C22.3582 202.901 17.4318 204.701 15.3355 201.101C4.01523 181.401 2.0237 136.301 36.2989 92.2006L36.4038 92.3006Z" fill="url(#paint0_linear_1946_770)"/>
<path d="M320 66.6H318.7C304.7 66.7 291.5 69.5 279 75C275.9 76.3 272.9 77.8 270.1 79.4C267.8 80.7 265 80 263.4 77.8C262.5 76.6 261.4 75.4 260.3 74.3C257.7 71.9 254.7 70 251.4 68.6C248 67.2 244.5 66.5 240.7 66.5C236.9 66.5 233.6 67.2 230.4 68.6C227.2 70 224.3 71.9 221.9 74.3C219.5 76.7 217.5 79.5 216.1 82.8C214.7 86.1 214 89.6 214 93.4L214.8 169V235C214.8 238.8 215.5 242.3 217 245.6C218.5 248.9 220.5 251.7 223.1 254.1C225.7 256.5 228.7 258.4 232 259.8C235.4 261.2 238.9 261.9 242.7 261.9C246.5 261.9 249.8 261.2 253 259.8C256.2 258.4 259.1 256.5 261.5 254.1C263.9 251.7 265.9 248.9 267.3 245.6C268.7 242.3 269.4 238.8 269.4 235V170.9C269.5 164 270.9 157.6 273.6 151.5C276.3 145.4 279.9 140.1 284.5 135.6C289.1 131.1 294.5 127.6 300.6 125C306.7 122.4 313.2 121.1 320 121.1C326.8 121.1 327.6 120.4 331 119C334.4 117.6 337.4 115.7 340 113.2C342.6 110.8 344.6 107.8 346.1 104.5C347.6 101.1 348.3 97.5 348.3 93.6C348.3 85.8 345.8 79.3 340.8 74.2C335.8 69.1 328.9 66.5 319.9 66.5H320V66.6Z" fill="#282929"/>
<path d="M526.101 92.8C517.001 83.8 506.401 76.8 494.201 71.7C482.001 66.6 469.101 64 455.601 64C442.101 64 428.701 66.6 416.501 71.9C404.301 77.1 393.601 84.3 384.501 93.3C375.301 102.3 368.101 112.9 362.801 125.1C357.501 137.3 354.801 150.3 354.801 164.2C354.801 178.1 357.501 191.1 362.801 203.2C368.101 215.3 375.401 225.9 384.501 235C393.701 244.1 404.401 251.3 416.501 256.5C428.701 261.7 441.701 264.4 455.601 264.4C469.501 264.4 470.601 263.9 476.801 262.8C483.001 261.8 488.401 260.4 493.101 258.7C497.801 257 501.901 255.1 505.501 252.9C509.101 250.7 512.201 248.6 514.801 246.5C517.901 244 520.301 241.2 521.901 238.2C523.601 235.2 524.601 232.1 525.001 229C525.401 225.8 525.301 222.7 524.601 219.5C523.901 216.4 522.801 213.4 521.201 210.8C519.701 208.1 517.701 205.8 515.401 203.8C513.101 201.8 510.501 200.2 507.701 199.1C503.601 197.6 499.301 197.1 494.801 197.8C490.301 198.5 485.501 200.6 480.401 204.1C477.301 206.2 473.801 207.7 469.801 208.6C465.801 209.5 461.001 210 455.401 210C447.001 210 439.301 208.2 432.401 204.6C425.501 201 419.801 195.7 415.501 188.5H529.301C537.301 188.5 543.801 186.1 548.701 181.4C553.701 176.6 556.201 170.4 556.201 162.7C555.901 149 553.101 136.1 547.701 124.2C542.301 112.2 535.101 101.8 526.001 92.8H526.101ZM413.901 143.3C417.501 135.5 423.001 129.4 430.401 125.1C437.801 120.8 446.501 118.7 456.501 118.7C466.501 118.7 475.401 120.7 483.101 124.7C490.701 128.7 496.401 134.9 500.201 143.3H413.901Z" fill="#282929"/>
<path d="M846.098 112C841.698 102.5 835.898 94.1996 828.698 87.0996C821.498 79.9996 812.998 74.3996 803.298 70.2996C793.598 66.1996 783.198 64.0996 772.098 64.0996C760.998 64.0996 751.698 65.9996 742.298 69.7996C732.898 73.5996 724.398 78.7996 716.898 85.2996C709.598 78.6996 701.198 73.4996 691.798 69.7996C682.298 65.9996 672.298 64.0996 661.698 64.0996C651.098 64.0996 640.198 66.1996 630.398 70.3996C620.598 74.5996 611.998 80.2996 604.698 87.5996C597.298 94.8996 591.498 103.4 587.298 113.1C582.998 122.8 580.898 133.2 580.898 144.3V235.2C580.898 239 581.698 242.5 583.198 245.7C584.698 248.9 586.798 251.7 589.298 254.1C591.798 256.5 594.798 258.4 598.098 259.8C601.498 261.2 604.998 261.9 608.798 261.9C612.598 261.9 615.898 261.2 619.098 259.8C622.298 258.4 625.198 256.5 627.598 254.1C629.998 251.7 631.998 248.9 633.398 245.7C634.798 242.5 635.498 239 635.498 235.2V143.8C635.498 140.2 636.198 136.8 637.698 133.7C639.198 130.6 641.198 128 643.698 125.7C646.198 123.5 649.098 121.7 652.398 120.5C655.698 119.2 659.198 118.6 662.798 118.6C670.498 118.6 676.898 121 681.898 125.8C686.898 130.6 689.598 137 689.898 144.8V235.1C689.898 238.9 690.698 242.4 692.198 245.6C693.698 248.8 695.798 251.6 698.298 254C700.798 256.4 703.798 258.3 707.098 259.7C710.498 261.1 713.998 261.8 717.798 261.8C721.598 261.8 724.898 261.1 728.098 259.7C731.298 258.3 734.198 256.4 736.598 254C738.998 251.6 740.998 248.8 742.398 245.6C743.798 242.4 744.498 238.9 744.498 235.1V143.7C744.498 140.2 745.498 136.9 746.998 133.8C748.498 130.7 750.498 128.1 752.998 125.8C755.498 123.6 758.298 121.8 761.498 120.4C764.698 119.1 768.098 118.4 771.798 118.4C775.498 118.4 779.098 119 782.398 120.3C785.698 121.6 788.598 123.3 790.998 125.7C793.498 128 795.398 130.8 796.798 134C798.198 137.2 798.998 140.8 799.098 144.7V235C799.098 238.8 799.898 242.3 801.398 245.5C802.898 248.7 804.998 251.5 807.498 253.9C809.998 256.3 812.998 258.2 816.298 259.6C819.698 261 823.198 261.7 826.998 261.7C830.798 261.7 834.098 261 837.298 259.6C840.498 258.2 843.398 256.3 845.798 253.9C848.198 251.5 850.198 248.7 851.598 245.5C852.998 242.3 853.698 238.8 853.698 235V144.7C853.698 143.6 853.698 142.7 853.498 142.2C853.098 131.4 850.698 121.3 846.298 111.7L846.098 112Z" fill="#282929"/>
<path d="M1070.1 74.5992C1067.7 72.1992 1064.9 70.1992 1061.7 68.7992C1058.5 67.3992 1055 66.6992 1051.2 66.6992C1047.4 66.6992 1043.8 67.3992 1040.5 68.7992C1037.1 70.1992 1034.2 72.0992 1031.7 74.5992C1029.2 76.9992 1027.2 79.8992 1025.6 83.1992C1024.1 86.4992 1023.3 89.9992 1023.3 93.7992V166.899C1023.3 173.099 1022.4 178.699 1020.7 183.899C1018.9 189.099 1016.4 193.599 1013.1 197.599C1009.8 201.499 1005.8 204.599 1001 206.699C996.202 208.899 990.802 209.999 984.802 209.999C978.802 209.999 973.002 208.899 967.802 206.699C962.602 204.499 958.102 201.599 954.102 197.799C950.202 193.999 947.102 189.499 945.002 184.399C942.802 179.199 941.702 173.599 941.702 167.599V93.8992C941.702 90.0992 941.002 86.5992 939.502 83.2992C938.002 79.9992 936.002 77.0992 933.502 74.6992C931.002 72.2992 928.102 70.2992 924.802 68.8992C921.502 67.4992 918.002 66.7992 914.202 66.7992C910.402 66.7992 906.902 67.4992 903.602 68.8992C900.302 70.2992 897.402 72.1992 895.002 74.6992C892.602 77.0992 890.602 79.9992 889.202 83.2992C887.802 86.5992 887.102 90.0992 887.102 93.8992V167.199C887.102 180.599 889.702 193.299 894.802 205.099C899.902 216.899 906.902 227.299 915.802 236.099C924.702 244.899 935.102 251.899 946.902 256.999C958.702 262.099 971.402 264.699 984.802 264.699C998.202 264.699 1010.9 262.099 1022.3 256.899C1033.7 251.699 1043.5 244.599 1051.7 235.699C1059.9 226.699 1066.3 216.299 1070.9 204.299C1075.5 192.299 1077.8 179.599 1077.8 165.999V93.9992C1077.8 90.1992 1077.1 86.6992 1075.7 83.3992C1074.3 80.0992 1072.4 77.1992 1070 74.7992V74.5992H1070.1Z" fill="#282929"/>
<path d="M1245.8 178.6C1242.5 171.9 1238.1 166 1232.7 161.1C1227.2 156.1 1220.9 151.9 1213.7 148.5C1206.5 145.1 1199 142.1 1191.1 139.6C1186.3 138.1 1182 136.8 1178.1 135.8C1174.2 134.8 1170.9 133.8 1168.1 132.9C1165.4 131.9 1163.3 130.9 1161.8 129.9C1160.3 128.9 1159.6 127.5 1159.6 125.8C1159.6 123.1 1161.1 121 1164 119.3C1166.9 117.6 1172.7 116.8 1181.2 116.8C1189.7 116.8 1187 117 1189.5 117.4C1191.9 117.8 1194.3 118.4 1196.4 119.2C1198.6 120 1200.8 120.8 1203 121.7C1205.2 122.6 1207.8 123.6 1210.8 124.5C1215.6 126.5 1220.4 126.7 1225.3 125.3C1230.2 123.9 1234.3 121.4 1237.5 117.7C1240.4 114.3 1242.3 110 1243.1 104.8C1243.9 99.6 1243.1 94.3 1240.5 88.9C1238.3 84.3 1234.8 80.4 1230.1 77.2C1225.4 74.1 1220.1 71.5 1214.2 69.5C1208.3 67.5 1202.1 66.1 1195.6 65.3C1189.1 64.5 1183 64 1177.2 64C1166.3 64 1156.4 65.5 1147.5 68.5C1138.6 71.5 1131 75.7 1124.7 81C1118.4 86.3 1113.5 92.8 1110.1 100.3C1106.7 107.9 1105 116.1 1105 125.1C1105 134.1 1106.8 141.5 1110.3 147.7C1113.8 153.9 1118.3 159.3 1123.7 163.9C1129.2 168.5 1135.1 172.3 1141.6 175.5C1148 178.6 1154.2 181.6 1160.1 184.2C1161.9 185 1164.9 186.1 1168.9 187.5C1173 188.8 1177 190.3 1181 191.9C1185 193.5 1188.5 195.3 1191.6 197.2C1194.7 199.1 1196.2 201 1196.2 203C1196.2 205 1194.4 208 1190.7 209.6C1187.1 211.2 1182.7 212 1177.7 212C1172.7 212 1171.4 211.6 1168.4 210.8C1165.4 210 1162.6 209 1160 207.8C1157.4 206.5 1155 205.2 1152.8 203.7C1150.6 202.2 1148.7 200.8 1147.3 199.4C1142.7 195.2 1138 192.3 1133.1 190.6C1128.3 188.9 1123.7 188.3 1119.4 188.6C1115.1 188.9 1111.3 190.2 1107.8 192.4C1104.4 194.6 1101.7 197.4 1099.9 200.9C1098.1 204.4 1097.2 208.5 1097.4 213.2C1097.4 217.9 1099 222.9 1101.8 228.2C1105.4 235.2 1110.3 241 1116.4 245.6C1122.5 250.2 1129.1 253.9 1136.1 256.7C1143.2 259.5 1150.4 261.5 1157.7 262.7C1165.1 263.9 1171.8 264.5 1178 264.5C1188.6 264.5 1198.4 262.9 1207.3 259.7C1216.2 256.5 1223.9 252.1 1230.3 246.5C1236.7 240.9 1241.7 234.4 1245.3 226.9C1248.9 219.4 1250.7 211.3 1250.7 202.6C1250.7 193.9 1249.1 185.4 1245.8 178.7V178.6Z" fill="#282929"/>
<defs>
<linearGradient id="paint0_linear_1946_770" x1="44.6843" y1="185.501" x2="206.433" y2="98.3081" gradientUnits="userSpaceOnUse">
<stop stop-color="#00AA75"/>
<stop offset="1" stop-color="#00442F"/>
</linearGradient>
</defs>
</svg>
