<svg width="1332" height="327" viewBox="0 0 1332 327" fill="none" xmlns="http://www.w3.org/2000/svg">
<path d="M38.4237 92.3006C84.1144 36.6006 163.105 19.9006 191.98 14.7006C196.073 13.9006 199.503 17.5006 197.843 21.0006C194.635 27.7006 190.431 35.5006 187.223 45.0006C176.823 76.3006 173.836 106.001 165.981 132.501C157.574 161.001 126.929 181.501 103.032 194.101C98.0539 196.801 100.045 204.001 105.798 204.001H126.376C131.243 204.001 133.677 209.201 130.358 212.401L27.9137 310.801C23.4885 315.101 15.8549 310.101 19.0632 304.901L61.6562 235.601C63.7582 232.301 60.9925 228.201 56.7885 228.201H32.6709C28.9094 228.201 26.2543 224.801 27.6925 221.601C31.5646 212.701 39.7513 195.301 52.9164 172.601C70.0642 143.101 97.2795 113.101 118.742 91.2006C122.946 86.9006 119.074 83.0006 114.317 86.7006C100.156 97.7006 82.7868 113.001 64.5327 132.401C38.2024 160.301 28.0244 184.801 24.5948 198.901C23.5991 202.901 18.3994 204.701 16.1868 201.101C4.23864 181.401 2.13665 136.301 38.3131 92.2006L38.4237 92.3006Z" fill="url(#paint0_linear_1946_770)"/>
<path d="M372 66.6H370.7C356.7 66.7 343.5 69.5 331 75C327.9 76.3 324.9 77.8 322.1 79.4C319.8 80.7 317 80 315.4 77.8C314.5 76.6 313.4 75.4 312.3 74.3C309.7 71.9 306.7 70 303.4 68.6C300 67.2 296.5 66.5 292.7 66.5C288.9 66.5 285.6 67.2 282.4 68.6C279.2 70 276.3 71.9 273.9 74.3C271.5 76.7 269.5 79.5 268.1 82.8C266.7 86.1 266 89.6 266 93.4L266.8 169V235C266.8 238.8 267.5 242.3 269 245.6C270.5 248.9 272.5 251.7 275.1 254.1C277.7 256.5 280.7 258.4 284 259.8C287.4 261.2 290.9 261.9 294.7 261.9C298.5 261.9 301.8 261.2 305 259.8C308.2 258.4 311.1 256.5 313.5 254.1C315.9 251.7 317.9 248.9 319.3 245.6C320.7 242.3 321.4 238.8 321.4 235V170.9C321.5 164 322.9 157.6 325.6 151.5C328.3 145.4 331.9 140.1 336.5 135.6C341.1 131.1 346.5 127.6 352.6 125C358.7 122.4 365.2 121.1 372 121.1C378.8 121.1 379.6 120.4 383 119C386.4 117.6 389.4 115.7 392 113.2C394.6 110.8 396.6 107.8 398.1 104.5C399.6 101.1 400.3 97.5 400.3 93.6C400.3 85.8 397.8 79.3 392.8 74.2C387.8 69.1 380.9 66.5 371.9 66.5H372V66.6Z" fill="#282929"/>
<path d="M578.101 92.8C569.001 83.8 558.401 76.8 546.201 71.7C534.001 66.6 521.101 64 507.601 64C494.101 64 480.701 66.6 468.501 71.9C456.301 77.1 445.601 84.3 436.501 93.3C427.301 102.3 420.101 112.9 414.801 125.1C409.501 137.3 406.801 150.3 406.801 164.2C406.801 178.1 409.501 191.1 414.801 203.2C420.101 215.3 427.401 225.9 436.501 235C445.701 244.1 456.401 251.3 468.501 256.5C480.701 261.7 493.701 264.4 507.601 264.4C521.501 264.4 522.601 263.9 528.801 262.8C535.001 261.8 540.401 260.4 545.101 258.7C549.801 257 553.901 255.1 557.501 252.9C561.101 250.7 564.201 248.6 566.801 246.5C569.901 244 572.301 241.2 573.901 238.2C575.601 235.2 576.601 232.1 577.001 229C577.401 225.8 577.301 222.7 576.601 219.5C575.901 216.4 574.801 213.4 573.201 210.8C571.701 208.1 569.701 205.8 567.401 203.8C565.101 201.8 562.501 200.2 559.701 199.1C555.601 197.6 551.301 197.1 546.801 197.8C542.301 198.5 537.501 200.6 532.401 204.1C529.301 206.2 525.801 207.7 521.801 208.6C517.801 209.5 513.001 210 507.401 210C499.001 210 491.301 208.2 484.401 204.6C477.501 201 471.801 195.7 467.501 188.5H581.301C589.301 188.5 595.801 186.1 600.701 181.4C605.701 176.6 608.201 170.4 608.201 162.7C607.901 149 605.101 136.1 599.701 124.2C594.301 112.2 587.101 101.8 578.001 92.8H578.101ZM465.901 143.3C469.501 135.5 475.001 129.4 482.401 125.1C489.801 120.8 498.501 118.7 508.501 118.7C518.501 118.7 527.401 120.7 535.101 124.7C542.701 128.7 548.401 134.9 552.201 143.3H465.901Z" fill="#282929"/>
<path d="M898.098 112C893.698 102.5 887.898 94.1996 880.698 87.0996C873.498 79.9996 864.998 74.3996 855.298 70.2996C845.598 66.1996 835.198 64.0996 824.098 64.0996C812.998 64.0996 803.698 65.9996 794.298 69.7996C784.898 73.5996 776.398 78.7996 768.898 85.2996C761.598 78.6996 753.198 73.4996 743.798 69.7996C734.298 65.9996 724.298 64.0996 713.698 64.0996C703.098 64.0996 692.198 66.1996 682.398 70.3996C672.598 74.5996 663.998 80.2996 656.698 87.5996C649.298 94.8996 643.498 103.4 639.298 113.1C634.998 122.8 632.898 133.2 632.898 144.3V235.2C632.898 239 633.698 242.5 635.198 245.7C636.698 248.9 638.798 251.7 641.298 254.1C643.798 256.5 646.798 258.4 650.098 259.8C653.498 261.2 656.998 261.9 660.798 261.9C664.598 261.9 667.898 261.2 671.098 259.8C674.298 258.4 677.198 256.5 679.598 254.1C681.998 251.7 683.998 248.9 685.398 245.7C686.798 242.5 687.498 239 687.498 235.2V143.8C687.498 140.2 688.198 136.8 689.698 133.7C691.198 130.6 693.198 128 695.698 125.7C698.198 123.5 701.098 121.7 704.398 120.5C707.698 119.2 711.198 118.6 714.798 118.6C722.498 118.6 728.898 121 733.898 125.8C738.898 130.6 741.598 137 741.898 144.8V235.1C741.898 238.9 742.698 242.4 744.198 245.6C745.698 248.8 747.798 251.6 750.298 254C752.798 256.4 755.798 258.3 759.098 259.7C762.498 261.1 765.998 261.8 769.798 261.8C773.598 261.8 776.898 261.1 780.098 259.7C783.298 258.3 786.198 256.4 788.598 254C790.998 251.6 792.998 248.8 794.398 245.6C795.798 242.4 796.498 238.9 796.498 235.1V143.7C796.498 140.2 797.498 136.9 798.998 133.8C800.498 130.7 802.498 128.1 804.998 125.8C807.498 123.6 810.298 121.8 813.498 120.4C816.698 119.1 820.098 118.4 823.798 118.4C827.498 118.4 831.098 119 834.398 120.3C837.698 121.6 840.598 123.3 842.998 125.7C845.498 128 847.398 130.8 848.798 134C850.198 137.2 850.998 140.8 851.098 144.7V235C851.098 238.8 851.898 242.3 853.398 245.5C854.898 248.7 856.998 251.5 859.498 253.9C861.998 256.3 864.998 258.2 868.298 259.6C871.698 261 875.198 261.7 878.998 261.7C882.798 261.7 886.098 261 889.298 259.6C892.498 258.2 895.398 256.3 897.798 253.9C900.198 251.5 902.198 248.7 903.598 245.5C904.998 242.3 905.698 238.8 905.698 235V144.7C905.698 143.6 905.698 142.7 905.498 142.2C905.098 131.4 902.698 121.3 898.298 111.7L898.098 112Z" fill="#282929"/>
<path d="M1122.1 74.5992C1119.7 72.1992 1116.9 70.1992 1113.7 68.7992C1110.5 67.3992 1107 66.6992 1103.2 66.6992C1099.4 66.6992 1095.8 67.3992 1092.5 68.7992C1089.1 70.1992 1086.2 72.0992 1083.7 74.5992C1081.2 76.9992 1079.2 79.8992 1077.6 83.1992C1076.1 86.4992 1075.3 89.9992 1075.3 93.7992V166.899C1075.3 173.099 1074.4 178.699 1072.7 183.899C1070.9 189.099 1068.4 193.599 1065.1 197.599C1061.8 201.499 1057.8 204.599 1053 206.699C1048.2 208.899 1042.8 209.999 1036.8 209.999C1030.8 209.999 1025 208.899 1019.8 206.699C1014.6 204.499 1010.1 201.599 1006.1 197.799C1002.2 193.999 999.102 189.499 997.002 184.399C994.802 179.199 993.702 173.599 993.702 167.599V93.8992C993.702 90.0992 993.002 86.5992 991.502 83.2992C990.002 79.9992 988.002 77.0992 985.502 74.6992C983.002 72.2992 980.102 70.2992 976.802 68.8992C973.502 67.4992 970.002 66.7992 966.202 66.7992C962.402 66.7992 958.902 67.4992 955.602 68.8992C952.302 70.2992 949.402 72.1992 947.002 74.6992C944.602 77.0992 942.602 79.9992 941.202 83.2992C939.802 86.5992 939.102 90.0992 939.102 93.8992V167.199C939.102 180.599 941.702 193.299 946.802 205.099C951.902 216.899 958.902 227.299 967.802 236.099C976.702 244.899 987.102 251.899 998.902 256.999C1010.7 262.099 1023.4 264.699 1036.8 264.699C1050.2 264.699 1062.9 262.099 1074.3 256.899C1085.7 251.699 1095.5 244.599 1103.7 235.699C1111.9 226.699 1118.3 216.299 1122.9 204.299C1127.5 192.299 1129.8 179.599 1129.8 165.999V93.9992C1129.8 90.1992 1129.1 86.6992 1127.7 83.3992C1126.3 80.0992 1124.4 77.1992 1122 74.7992V74.5992H1122.1Z" fill="#282929"/>
<path d="M1297.8 178.6C1294.5 171.9 1290.1 166 1284.7 161.1C1279.2 156.1 1272.9 151.9 1265.7 148.5C1258.5 145.1 1251 142.1 1243.1 139.6C1238.3 138.1 1234 136.8 1230.1 135.8C1226.2 134.8 1222.9 133.8 1220.1 132.9C1217.4 131.9 1215.3 130.9 1213.8 129.9C1212.3 128.9 1211.6 127.5 1211.6 125.8C1211.6 123.1 1213.1 121 1216 119.3C1218.9 117.6 1224.7 116.8 1233.2 116.8C1241.7 116.8 1239 117 1241.5 117.4C1243.9 117.8 1246.3 118.4 1248.4 119.2C1250.6 120 1252.8 120.8 1255 121.7C1257.2 122.6 1259.8 123.6 1262.8 124.5C1267.6 126.5 1272.4 126.7 1277.3 125.3C1282.2 123.9 1286.3 121.4 1289.5 117.7C1292.4 114.3 1294.3 110 1295.1 104.8C1295.9 99.6 1295.1 94.3 1292.5 88.9C1290.3 84.3 1286.8 80.4 1282.1 77.2C1277.4 74.1 1272.1 71.5 1266.2 69.5C1260.3 67.5 1254.1 66.1 1247.6 65.3C1241.1 64.5 1235 64 1229.2 64C1218.3 64 1208.4 65.5 1199.5 68.5C1190.6 71.5 1183 75.7 1176.7 81C1170.4 86.3 1165.5 92.8 1162.1 100.3C1158.7 107.9 1157 116.1 1157 125.1C1157 134.1 1158.8 141.5 1162.3 147.7C1165.8 153.9 1170.3 159.3 1175.7 163.9C1181.2 168.5 1187.1 172.3 1193.6 175.5C1200 178.6 1206.2 181.6 1212.1 184.2C1213.9 185 1216.9 186.1 1220.9 187.5C1225 188.8 1229 190.3 1233 191.9C1237 193.5 1240.5 195.3 1243.6 197.2C1246.7 199.1 1248.2 201 1248.2 203C1248.2 205 1246.4 208 1242.7 209.6C1239.1 211.2 1234.7 212 1229.7 212C1224.7 212 1223.4 211.6 1220.4 210.8C1217.4 210 1214.6 209 1212 207.8C1209.4 206.5 1207 205.2 1204.8 203.7C1202.6 202.2 1200.7 200.8 1199.3 199.4C1194.7 195.2 1190 192.3 1185.1 190.6C1180.3 188.9 1175.7 188.3 1171.4 188.6C1167.1 188.9 1163.3 190.2 1159.8 192.4C1156.4 194.6 1153.7 197.4 1151.9 200.9C1150.1 204.4 1149.2 208.5 1149.4 213.2C1149.4 217.9 1151 222.9 1153.8 228.2C1157.4 235.2 1162.3 241 1168.4 245.6C1174.5 250.2 1181.1 253.9 1188.1 256.7C1195.2 259.5 1202.4 261.5 1209.7 262.7C1217.1 263.9 1223.8 264.5 1230 264.5C1240.6 264.5 1250.4 262.9 1259.3 259.7C1268.2 256.5 1275.9 252.1 1282.3 246.5C1288.7 240.9 1293.7 234.4 1297.3 226.9C1300.9 219.4 1302.7 211.3 1302.7 202.6C1302.7 193.9 1301.1 185.4 1297.8 178.7V178.6Z" fill="#282929"/>
<defs>
<linearGradient id="paint0_linear_1946_770" x1="47.1636" y1="185.501" x2="213.612" y2="90.7982" gradientUnits="userSpaceOnUse">
<stop stop-color="#00AA75"/>
<stop offset="1" stop-color="#00442F"/>
</linearGradient>
</defs>
</svg>
